<svg width="32" height="25" viewBox="0 0 32 25" fill="none" xmlns="http://www.w3.org/2000/svg">
<path d="M9.21429 1H22.3571C24.7261 1 26.3394 1.00329 27.5469 1.16429C28.7068 1.322 29.244 1.59636 29.6087 1.96271C29.9751 2.32743 30.2494 2.86629 30.4055 4.0245C30.5681 5.232 30.5714 6.84529 30.5714 9.21429V15.7857C30.5714 18.1564 30.5681 19.768 30.4071 20.9755C30.2494 22.1354 29.9751 22.6726 29.6087 23.0373C29.244 23.4036 28.7051 23.678 27.5469 23.8341C26.3394 23.9967 24.7278 24 22.3571 24H9.21429C6.84529 24 5.232 23.9967 4.0245 23.8357C2.86464 23.678 2.32743 23.4036 1.96271 23.0373C1.59636 22.6726 1.322 22.1337 1.16593 20.9755C1.00329 19.768 1 18.1564 1 15.7857V9.21429C1 6.84529 1.00329 5.232 1.16429 4.0245C1.322 2.86464 1.59636 2.32743 1.96271 1.96271C2.32743 1.59636 2.86629 1.322 4.0245 1.16593C5.232 1.00329 6.84529 1 9.21429 1Z" stroke="white" stroke-width="2"/>
<path d="M2.64282 2.64282L11.8428 9.54282C13.742 10.9672 14.6899 11.6785 15.7857 11.6785C16.8815 11.6785 17.8294 10.9672 19.7285 9.54282L28.9285 2.64282" stroke="white" stroke-width="2"/>
</svg>
