<svg width="31" height="31" viewBox="0 0 31 31" fill="none" xmlns="http://www.w3.org/2000/svg">
<path d="M0 0H31V31H0V0Z" fill="white" fill-opacity="0.01"/>
<path fill-rule="evenodd" clip-rule="evenodd" d="M2.65517 29.7084C1.90218 29.7084 1.29175 29.0946 1.29175 28.3375V2.66268C1.29175 1.90554 1.90218 1.29175 2.65517 1.29175H28.345C29.098 1.29175 29.7084 1.90554 29.7084 2.66268V28.3375C29.7084 29.0946 29.098 29.7084 28.345 29.7084C27.4361 29.7084 18.8728 29.7084 2.65517 29.7084Z" stroke="white" stroke-width="2" stroke-linecap="round" stroke-linejoin="round"/>
<path fill-rule="evenodd" clip-rule="evenodd" d="M24.9689 11.5521H22.1569H21.8246C20.9527 11.5521 20.2459 12.2589 20.2459 13.1308V16.2892H24.9689L24.2771 21.0237H20.2459V29.7085H15.0521V21.0237H10.7639V16.2892H14.9967L15.0521 11.7952L15.0366 10.1845C15.0148 7.91009 16.8409 6.04865 19.1153 6.02681C19.1284 6.02668 19.1416 6.02661 19.1548 6.02661H24.9689V11.5521Z" fill="white"/>
</svg>
