<svg width="33" height="33" viewBox="0 0 33 33" fill="none" xmlns="http://www.w3.org/2000/svg">
<path d="M0 0H33V33H0V0Z" fill="white" fill-opacity="0.01"/>
<path fill-rule="evenodd" clip-rule="evenodd" d="M16.5 2.75C8.90608 2.75 2.75 8.90608 2.75 16.5C2.75 24.0939 8.90608 30.25 16.5 30.25C24.0939 30.25 30.25 24.0939 30.25 16.5C30.25 8.90608 24.0939 2.75 16.5 2.75ZM0 16.5C0 7.38733 7.38733 0 16.5 0C25.6127 0 33 7.38733 33 16.5C33 25.6127 25.6127 33 16.5 33C7.38733 33 0 25.6127 0 16.5Z" fill="black"/>
<path fill-rule="evenodd" clip-rule="evenodd" d="M13.1884 31.2617C13.0554 31.09 13.0554 29.5606 13.1884 26.6737C11.764 26.7228 10.8641 26.624 10.4885 26.3771C9.92534 26.0067 9.36146 24.8646 8.86116 24.0596C8.36087 23.2547 7.25042 23.1275 6.80203 22.9475C6.35363 22.7676 6.24107 22.0341 8.03761 22.5888C9.83418 23.1436 9.92177 24.6542 10.4885 25.0074C11.0553 25.3607 12.4102 25.2061 13.0245 24.9231C13.6386 24.6402 13.5934 23.5866 13.703 23.1692C13.8414 22.7796 13.3534 22.6932 13.3426 22.69C12.7431 22.69 9.59321 22.005 8.72799 18.9548C7.86284 15.9046 8.97735 13.9109 9.5719 13.0539C9.96824 12.4825 9.93318 11.2648 9.46671 9.40063C11.1604 9.18421 12.4674 9.7173 13.3879 11C13.3888 11.0074 14.5945 10.283 16.5 10.283C18.4057 10.283 19.0817 10.8731 19.6034 11C20.1251 11.127 20.5424 8.75466 23.7646 9.40063C23.0919 10.7228 22.5285 12.375 22.9585 13.0539C23.3885 13.7327 25.0761 15.8913 24.0394 18.9548C23.3483 20.9971 21.9898 22.2422 19.9638 22.69C19.7314 22.7641 19.6153 22.8837 19.6153 23.0487C19.6153 23.2963 19.9294 23.3233 20.3819 24.483C20.6835 25.2561 20.7053 27.4642 20.4472 31.1073C19.7934 31.2737 19.2848 31.3854 18.9214 31.4426C18.2769 31.5438 17.5772 31.6006 16.8896 31.6226C16.2021 31.6445 15.9633 31.642 15.0128 31.5535C14.3792 31.4945 13.771 31.3973 13.1884 31.2617Z" fill="black"/>
</svg>
