<svg width="28" height="28" viewBox="0 0 28 28" fill="none" xmlns="http://www.w3.org/2000/svg">
<path d="M24.0709 25.592C16.9763 32.6863 -4.68656 11.0243 2.40808 3.92999L4.39458 1.94357C4.74332 1.59512 5.16732 1.33127 5.63398 1.17229C6.10063 1.01331 6.59753 0.963431 7.08648 1.02649C7.57543 1.08956 8.04341 1.26388 8.45445 1.53606C8.86549 1.80824 9.20866 2.17104 9.45757 2.59657L10.3186 4.07026C10.6258 4.59531 10.7782 5.19654 10.7582 5.80452C10.7383 6.4125 10.5467 7.00243 10.2057 7.50619L9.62042 8.3688C9.30524 8.83439 9.16213 9.39524 9.21569 9.95492C9.26924 10.5146 9.51613 11.0381 9.91388 11.4355L13.2387 14.7618L16.5651 18.0865C16.9627 18.484 17.4863 18.7305 18.046 18.7838C18.6057 18.8371 19.1665 18.6937 19.6319 18.3783L20.4946 17.7946C20.9983 17.4537 21.5883 17.2621 22.1963 17.2422C22.8043 17.2222 23.4056 17.3746 23.9306 17.6818L25.4044 18.5428C25.8298 18.7918 26.1925 19.1351 26.4645 19.5462C26.7366 19.9573 26.9107 20.4252 26.9736 20.9142C27.0365 21.4031 26.9865 21.8999 26.8274 22.3665C26.6683 22.8331 26.4043 23.2569 26.0558 23.6056L24.0709 25.592Z" stroke="white" stroke-width="2" stroke-linecap="round" stroke-linejoin="round"/>
</svg>
