<svg width="60" height="60" viewBox="0 0 60 60" fill="none" xmlns="http://www.w3.org/2000/svg">
<path d="M0 0H59.1978V59.1978H0V0Z" fill="white" fill-opacity="0.01"/>
<path d="M29.5989 45.6316C38.4535 45.6316 45.6316 38.4535 45.6316 29.5989C45.6316 20.7443 38.4535 13.5662 29.5989 13.5662C20.7443 13.5662 13.5662 20.7443 13.5662 29.5989C13.5662 38.4535 20.7443 45.6316 29.5989 45.6316Z" fill="#2F88FF" stroke="white" stroke-width="4.93315" stroke-linejoin="round"/>
<path d="M29.5991 7.39972C31.3019 7.39972 32.6823 6.01931 32.6823 4.3165C32.6823 2.61368 31.3019 1.23328 29.5991 1.23328C27.8963 1.23328 26.5159 2.61368 26.5159 4.3165C26.5159 6.01931 27.8963 7.39972 29.5991 7.39972Z" fill="white"/>
<path d="M47.4817 14.7994C49.1845 14.7994 50.5649 13.419 50.5649 11.7162C50.5649 10.0134 49.1845 8.633 47.4817 8.633C45.7789 8.633 44.3984 10.0134 44.3984 11.7162C44.3984 13.419 45.7789 14.7994 47.4817 14.7994Z" fill="white"/>
<path d="M54.8813 32.6821C56.5841 32.6821 57.9645 31.3017 57.9645 29.5989C57.9645 27.8961 56.5841 26.5157 54.8813 26.5157C53.1785 26.5157 51.7981 27.8961 51.7981 29.5989C51.7981 31.3017 53.1785 32.6821 54.8813 32.6821Z" fill="white"/>
<path d="M47.4817 50.5648C49.1845 50.5648 50.5649 49.1844 50.5649 47.4816C50.5649 45.7788 49.1845 44.3983 47.4817 44.3983C45.7789 44.3983 44.3984 45.7788 44.3984 47.4816C44.3984 49.1844 45.7789 50.5648 47.4817 50.5648Z" fill="white"/>
<path d="M29.5991 57.9645C31.3019 57.9645 32.6823 56.5841 32.6823 54.8813C32.6823 53.1785 31.3019 51.7981 29.5991 51.7981C27.8963 51.7981 26.5159 53.1785 26.5159 54.8813C26.5159 56.5841 27.8963 57.9645 29.5991 57.9645Z" fill="white"/>
<path d="M11.7163 50.5648C13.4191 50.5648 14.7995 49.1844 14.7995 47.4816C14.7995 45.7788 13.4191 44.3983 11.7163 44.3983C10.0135 44.3983 8.63306 45.7788 8.63306 47.4816C8.63306 49.1844 10.0135 50.5648 11.7163 50.5648Z" fill="white"/>
<path d="M4.31662 32.6821C6.01943 32.6821 7.39984 31.3017 7.39984 29.5989C7.39984 27.8961 6.01943 26.5157 4.31662 26.5157C2.61381 26.5157 1.2334 27.8961 1.2334 29.5989C1.2334 31.3017 2.61381 32.6821 4.31662 32.6821Z" fill="white"/>
<path d="M11.7163 14.7994C13.4191 14.7994 14.7995 13.419 14.7995 11.7162C14.7995 10.0134 13.4191 8.633 11.7163 8.633C10.0135 8.633 8.63306 10.0134 8.63306 11.7162C8.63306 13.419 10.0135 14.7994 11.7163 14.7994Z" fill="white"/>
</svg>
